<svg width="71" height="177" viewBox="0 0 71 177" fill="none" xmlns="http://www.w3.org/2000/svg">
<path d="M34.512 16.168L7.376 13.288H34.96C34.7467 14.1413 34.5973 15.1013 34.512 16.168ZM36.688 7.144L35.728 9.96L9.168 7.144H36.688ZM34.512 19.432C34.5973 20.584 34.768 21.544 35.024 22.312L7.952 19.432H34.512ZM43.472 28.456L9.616 25.576H37.2C38.608 26.9413 40.6987 27.9013 43.472 28.456ZM41.488 1C40.5067 1.64 39.568 2.51466 38.672 3.624L13.968 1H41.488ZM8.528 31.72H32.464L31.504 34.536L8.528 31.72ZM7.44 37.928H30.416L29.456 40.744L7.44 37.928ZM35.216 29.736C38.8 30.7173 42.064 31.208 45.008 31.208C47.9947 31.208 50.4267 31.08 52.304 30.824L52.816 27.624L47.504 27.112C43.4507 26.728 40.5707 25.8107 38.864 24.36C37.2 22.9093 36.368 20.8613 36.368 18.216C36.368 17.064 36.496 15.784 36.752 14.376C37.7333 8.91467 39.5253 5.16 42.128 3.112C44.7307 1.064 48.72 0.0399971 54.096 0.0399971C59.5147 0.0399971 64.2933 0.573331 68.432 1.64L65.104 11.88C61.392 11.24 58.4053 10.92 56.144 10.92C53.9253 10.92 52.0053 11.0267 50.384 11.24L49.872 14.376L54.16 14.824C58.512 15.2933 61.6053 16.3387 63.44 17.96C65.2747 19.5387 66.192 21.672 66.192 24.36C66.192 27.0907 65.616 29.9067 64.464 32.808C63.824 34.3013 63.1413 35.56 62.416 36.584C61.7333 37.5653 60.8373 38.4187 59.728 39.144C58.6613 39.8267 57.68 40.36 56.784 40.744C55.888 41.0853 54.736 41.3413 53.328 41.512C51.3653 41.8107 48.9333 41.96 46.032 41.96C40.7413 41.96 35.9413 41.4053 31.632 40.296L35.216 29.736ZM34.96 98.76C36.1973 98.76 37.008 98.5893 37.392 98.248C37.8187 97.864 38.0747 97.3947 38.16 96.84L41.232 79.24H36.24L38.096 69H55.248L50.064 98.44C49.4667 101.896 48.1867 104.52 46.224 106.312C44.304 108.104 41.8293 109 38.8 109H29.328L31.184 98.76H34.96ZM27.408 108.808L0.271999 105.928H27.92L27.408 108.808ZM36.24 96.456L9.104 93.576H36.752L36.24 96.456ZM37.328 90.312L10.192 87.432H37.84L37.328 90.312ZM38.416 84.168L11.28 81.288H38.928L38.416 84.168ZM34.448 78.024L7.312 75.144H34.896L34.448 78.024ZM28.496 102.6L1.36 99.72H29.008L28.496 102.6ZM35.6 71.88L8.528 69H36.112L35.6 71.88ZM46.672 160.808L46.736 159.592H46.224L43.216 177H31.056L38.096 137H50.256L47.376 153.32H47.888C48.2293 151.955 48.6133 150.931 49.04 150.248L57.104 137H70.224L57.68 156.648L63.504 177H50.384L46.864 162.664C46.736 162.237 46.672 161.619 46.672 160.808ZM29.136 176.808L2 173.928H29.648L29.136 176.808ZM31.312 164.456L4.176 161.576H31.824L31.312 164.456ZM32.4 158.312L5.264 155.432H32.912L32.4 158.312ZM33.488 152.168L6.352 149.288H34L33.488 152.168ZM34.576 146.024L7.44 143.144H35.024L34.576 146.024ZM30.224 170.6L3.088 167.72H30.736L30.224 170.6ZM35.6 139.88L8.528 137H36.112L35.6 139.88Z" fill="#DA479F"/>
</svg>
